<?xml version="1.0" encoding="utf-8"?>
<!-- Generator: Adobe Illustrator 24.2.1, SVG Export Plug-In . SVG Version: 6.00 Build 0)  -->
<svg version="1.1" id="Lager_1" xmlns="http://www.w3.org/2000/svg" xmlns:xlink="http://www.w3.org/1999/xlink" x="0px" y="0px"
	 viewBox="0 0 100 100" style="enable-background:new 0 0 100 100;" xml:space="preserve">
<style type="text/css">
	.st0{fill:#FFFFFF;}
</style>
<path class="st0" d="M50,1C22.94,1,1,22.94,1,50s21.94,49,49,49s49-21.94,49-49S77.06,1,50,1z M62.24,72.76
	c2.34,2.34,2.34,6.14,0,8.48C61.07,82.41,59.54,83,58,83s-3.07-0.59-4.24-1.76l-27-27c-2.34-2.34-2.34-6.14,0-8.48l27-27
	c2.34-2.34,6.14-2.34,8.48,0c2.34,2.34,2.34,6.14,0,8.49L39.49,50L62.24,72.76z"/>
</svg>
