<?xml version="1.0" encoding="utf-8"?>
<!-- Generator: Adobe Illustrator 26.0.0, SVG Export Plug-In . SVG Version: 6.00 Build 0)  -->
<svg version="1.1" id="Lager_1" xmlns="http://www.w3.org/2000/svg" xmlns:xlink="http://www.w3.org/1999/xlink" x="0px" y="0px"
	 viewBox="0 0 28.4 28.4" style="enable-background:new 0 0 28.4 28.4;" xml:space="preserve">
<style type="text/css">
	.st0{fill:#FFFFFF;}
</style>
<path class="st0" d="M14.1,28.4c7.9,0,14.2-6.3,14.2-14.2S22,0,14.1,0S0,6.4,0,14.2S6.3,28.4,14.1,28.4z M7.9,12.9l8.9-6.8
	c0.3-0.2,0.6-0.3,1-0.3c0.5,0,1,0.2,1.3,0.6c0.5,0.8,0.4,1.8-0.3,2.4l-7.1,5.5l7.2,5.4c0.6,0.5,0.9,1.6,0.2,2.4
	c-0.5,0.8-1.6,0.9-2.4,0.3l-8.9-6.8c-0.4-0.3-0.6-0.9-0.6-1.3C7.1,13.7,7.5,13.2,7.9,12.9z"/>
</svg>
