<svg id="Layer_1" data-name="Layer 1" xmlns="http://www.w3.org/2000/svg" viewBox="0 0 385 278.33"><defs><style>.cls-1{fill:none;stroke:#fff;stroke-miterlimit:10;}</style></defs><title>menu</title><path class="cls-1" d="M368,207.67H16a16,16,0,0,1,0-32H368a16,16,0,0,1,0,32Z" transform="translate(0.5 -52.5)"/><path class="cls-1" d="M368,85H16a16,16,0,0,1,0-32H368a16,16,0,0,1,0,32Z" transform="translate(0.5 -52.5)"/><path class="cls-1" d="M368,330.33H16a16,16,0,0,1,0-32H368a16,16,0,0,1,0,32Z" transform="translate(0.5 -52.5)"/></svg>