<?xml version="1.0" encoding="UTF-8" standalone="no"?>
<svg
   xmlns:dc="http://purl.org/dc/elements/1.1/"
   xmlns:cc="http://creativecommons.org/ns#"
   xmlns:rdf="http://www.w3.org/1999/02/22-rdf-syntax-ns#"
   xmlns:svg="http://www.w3.org/2000/svg"
   xmlns="http://www.w3.org/2000/svg"
   xmlns:sodipodi="http://sodipodi.sourceforge.net/DTD/sodipodi-0.dtd"
   xmlns:inkscape="http://www.inkscape.org/namespaces/inkscape"
   version="1.1"
   id="Capa_1"
   x="0px"
   y="0px"
   viewBox="0 0 477.867 477.867"
   style="enable-background:new 0 0 477.867 477.867;"
   xml:space="preserve"
   sodipodi:docname="left-arrow.svg"
   inkscape:version="1.0.1 (c497b03c, 2020-09-10)"><metadata
   id="metadata1082"><rdf:RDF><cc:Work
       rdf:about=""><dc:format>image/svg+xml</dc:format><dc:type
         rdf:resource="http://purl.org/dc/dcmitype/StillImage" /></cc:Work></rdf:RDF></metadata><defs
   id="defs1080" /><sodipodi:namedview
   pagecolor="#ffffff"
   bordercolor="#666666"
   borderopacity="1"
   objecttolerance="10"
   gridtolerance="10"
   guidetolerance="10"
   inkscape:pageopacity="0"
   inkscape:pageshadow="2"
   inkscape:window-width="1869"
   inkscape:window-height="872"
   id="namedview1078"
   showgrid="false"
   inkscape:zoom="1.2953395"
   inkscape:cx="90.323812"
   inkscape:cy="238.9335"
   inkscape:window-x="0"
   inkscape:window-y="23"
   inkscape:window-maximized="0"
   inkscape:current-layer="Capa_1" />
<g
   id="g1045"
   style="fill:#ffffff;fill-opacity:1">
	<g
   id="g1043"
   style="fill:#ffffff;fill-opacity:1">
		<path
   d="M238.933,0C106.974,0,0,106.974,0,238.933s106.974,238.933,238.933,238.933s238.933-106.974,238.933-238.933    S370.893,0,238.933,0z M320.357,403.926c-6.167,7.128-16.945,7.907-24.073,1.739c-0.17-0.147-0.337-0.298-0.501-0.451    l-170.667-153.6c-7.003-6.309-7.566-17.1-1.258-24.103c0.397-0.441,0.817-0.861,1.258-1.258l170.667-153.6    c6.879-6.444,17.679-6.092,24.123,0.787c6.444,6.879,6.092,17.679-0.787,24.123c-0.164,0.154-0.331,0.304-0.501,0.451    L162.133,238.933l156.484,140.919C325.746,386.02,326.524,396.798,320.357,403.926z"
   id="path1041"
   style="fill:#ffffff;fill-opacity:1" />
	</g>
</g>
<g
   id="g1047">
</g>
<g
   id="g1049">
</g>
<g
   id="g1051">
</g>
<g
   id="g1053">
</g>
<g
   id="g1055">
</g>
<g
   id="g1057">
</g>
<g
   id="g1059">
</g>
<g
   id="g1061">
</g>
<g
   id="g1063">
</g>
<g
   id="g1065">
</g>
<g
   id="g1067">
</g>
<g
   id="g1069">
</g>
<g
   id="g1071">
</g>
<g
   id="g1073">
</g>
<g
   id="g1075">
</g>
</svg>
