<?xml version="1.0" encoding="UTF-8" standalone="no"?> <!-- Created with Vectornator for iOS (http://vectornator.io/) --><!DOCTYPE svg PUBLIC "-//W3C//DTD SVG 1.1//EN" "http://www.w3.org/Graphics/SVG/1.1/DTD/svg11.dtd">
<svg height="100%" style="fill-rule:nonzero;clip-rule:evenodd;stroke-linecap:round;stroke-linejoin:round;" xmlns:xlink="http://www.w3.org/1999/xlink" xmlns="http://www.w3.org/2000/svg" xml:space="preserve" width="100%" xmlns:vectornator="http://vectornator.io" version="1.1" viewBox="0 0 377.393 377.393">
<metadata>
<vectornator:setting key="DimensionsVisible" value="1"/>
<vectornator:setting key="PencilOnly" value="0"/>
<vectornator:setting key="SnapToPoints" value="0"/>
<vectornator:setting key="OutlineMode" value="0"/>
<vectornator:setting key="CMYKEnabledKey" value="0"/>
<vectornator:setting key="RulersVisible" value="1"/>
<vectornator:setting key="SnapToEdges" value="0"/>
<vectornator:setting key="GuidesVisible" value="1"/>
<vectornator:setting key="DisplayWhiteBackground" value="0"/>
<vectornator:setting key="doHistoryDisabled" value="0"/>
<vectornator:setting key="SnapToGuides" value="1"/>
<vectornator:setting key="TimeLapseWatermarkDisabled" value="0"/>
<vectornator:setting key="Units" value="Points"/>
<vectornator:setting key="DynamicGuides" value="0"/>
<vectornator:setting key="IsolateActiveLayer" value="0"/>
<vectornator:setting key="SnapToGrid" value="0"/>
</metadata>
<defs/>
<g id="Untitled" vectornator:layerName="Untitled">
<g opacity="1">
<path d="M208.854+89.4855L208.854+113.677C215.72+115.382+222.258+117.988+228.387+121.454L245.57+104.271C234.229+96.8535+221.736+91.9225+208.854+89.4855Z" opacity="1" fill="#ffffff"/>
<path d="M265.497+169.214L289.75+169.214C287.067+156.102+281.763+143.445+273.888+132.007L256.818+149.082C260.674+155.39+263.577+162.129+265.497+169.214Z" opacity="1" fill="#ffffff"/>
<path d="M169.215+114.062L169.215+89.8085C156.594+92.3945+144.368+97.3555+133.267+104.748L150.414+121.895C156.313+118.47+162.605+115.843+169.215+114.062Z" opacity="1" fill="#ffffff"/>
<path d="M105.159+132.708C97.689+143.757+92.646+155.937+89.978+168.533L114.277+168.533C116.12+161.949+118.798+155.687+122.274+149.825L105.159+132.708Z" opacity="1" fill="#ffffff"/>
<path d="M208.173+266.029L208.173+290.17C221.567+287.728+234.561+282.628+246.297+274.81L229.145+257.658C222.617+261.462+215.587+264.262+208.173+266.029Z" opacity="1" fill="#ffffff"/>
<path d="M274.405+246.854C282.305+235.165+287.543+222.227+290.077+208.858L265.885+208.858C264.052+216.215+261.175+223.209+257.289+229.742L274.405+246.854Z" opacity="1" fill="#ffffff"/>
<path d="M188.697+37.0365C104.939+37.0365+37.037+104.938+37.037+188.697C37.037+272.456+104.938+340.357+188.696+340.357C272.454+340.357+340.356+272.456+340.356+188.697C340.356+104.938+272.455+37.0365+188.697+37.0365ZM312.063+175.251L260.73+175.251C258.79+165.728+254.883+156.548+249.087+148.284L285.843+111.528C300.517+129.919+309.549+151.883+312.063+175.251ZM202.823+65.4325C226.206+68.0645+248.12+77.2035+266.424+91.9545L229.304+129.074C221.127+123.739+212.111+120.242+202.823+118.552C202.823+118.552+202.823+65.4325+202.823+65.4325ZM175.252+65.3295L175.252+118.833C166.215+120.676+157.47+124.24+149.534+129.554L111.523+91.5445C129.924+76.8755+151.884+67.8385+175.252+65.3295ZM91.959+110.969L129.97+148.98C124.579+156.865+120.933+165.564+119.003+174.57L65.438+174.57C68.069+151.187+77.209+129.269+91.959+110.969ZM65.33+202.137L118.455+202.137C120.058+211.44+123.473+220.472+128.721+228.694L91.55+265.865C76.876+247.469+67.844+225.508+65.33+202.137ZM147.726+248.676C155.938+254.554+165.073+258.532+174.565+260.56L174.565+311.954C151.184+309.322+129.272+300.183+110.969+285.433L147.726+248.676ZM141.045+190.15C141.045+163.726+162.467+142.304+188.891+142.304C215.315+142.304+236.737+163.726+236.737+190.15C236.737+216.574+215.315+237.996+188.891+237.996C162.467+237.997+141.045+216.574+141.045+190.15ZM202.142+312.057L202.142+261.108C211.942+259.418+221.46+255.742+230.031+250.003L265.871+285.838C247.469+300.512+225.509+309.548+202.142+312.057ZM285.434+266.423L249.594+230.583C255.415+222.068+259.23+212.601+261.012+202.822L311.956+202.822C309.324+226.201+300.185+248.118+285.434+266.423Z" opacity="1" fill="#ffffff"/>
<path d="M113.54+208.173L89.394+208.173C91.744+221.065+96.588+233.573+103.919+244.959L121.138+227.74C117.723+221.592+115.179+215.038+113.54+208.173Z" opacity="1" fill="#ffffff"/>
<path d="M208.173+298.71L208.173+305.146C212.858+304.368+217.466+303.293+221.992+301.961L237.029+286.924C228.873+290.887+220.256+293.831+211.234+295.643L208.173+298.71Z" opacity="1" fill="#ffffff"/>
<path d="M148.494+256.443L131.455+273.482C142.837+281.428+155.447+286.809+168.529+289.584L168.529+265.279C161.463+263.299+154.751+260.34+148.494+256.443Z" opacity="1" fill="#ffffff"/>
<path d="M166.079+188.697C166.079+176.205+176.205+166.079+188.697+166.079C201.188+166.079+211.314+176.205+211.314+188.697C211.314+201.188+201.188+211.314+188.697+211.314C176.205+211.314+166.079+201.188+166.079+188.697Z" opacity="1" fill="#ffffff"/>
</g>
</g>
</svg>
