<?xml version="1.0" encoding="UTF-8" standalone="no"?> <!-- Created with Vectornator for iOS (http://vectornator.io/) --><!DOCTYPE svg PUBLIC "-//W3C//DTD SVG 1.1//EN" "http://www.w3.org/Graphics/SVG/1.1/DTD/svg11.dtd">
<svg height="100%" style="fill-rule:nonzero;clip-rule:evenodd;stroke-linecap:round;stroke-linejoin:round;" xmlns:xlink="http://www.w3.org/1999/xlink" xmlns="http://www.w3.org/2000/svg" xml:space="preserve" width="100%" xmlns:vectornator="http://vectornator.io" version="1.1" viewBox="0 0 377.393 377.393">
<metadata>
<vectornator:setting key="DimensionsVisible" value="1"/>
<vectornator:setting key="PencilOnly" value="0"/>
<vectornator:setting key="SnapToPoints" value="0"/>
<vectornator:setting key="OutlineMode" value="0"/>
<vectornator:setting key="CMYKEnabledKey" value="0"/>
<vectornator:setting key="RulersVisible" value="1"/>
<vectornator:setting key="SnapToEdges" value="0"/>
<vectornator:setting key="GuidesVisible" value="1"/>
<vectornator:setting key="DisplayWhiteBackground" value="0"/>
<vectornator:setting key="doHistoryDisabled" value="0"/>
<vectornator:setting key="SnapToGuides" value="1"/>
<vectornator:setting key="TimeLapseWatermarkDisabled" value="0"/>
<vectornator:setting key="Units" value="Points"/>
<vectornator:setting key="DynamicGuides" value="0"/>
<vectornator:setting key="IsolateActiveLayer" value="0"/>
<vectornator:setting key="SnapToGrid" value="0"/>
</metadata>
<defs/>
<g id="Untitled" vectornator:layerName="Untitled">
<g opacity="1">
<path d="M221.861+52.449L221.861+76.641C228.727+78.346+235.265+80.952+241.394+84.418L258.577+67.235C247.236+59.817+234.743+54.886+221.861+52.449Z" opacity="1" fill="#ffffff"/>
<path d="M278.504+132.178L302.757+132.178C300.074+119.066+294.77+106.409+286.895+94.971L269.825+112.046C273.681+118.354+276.584+125.092+278.504+132.178Z" opacity="1" fill="#ffffff"/>
<path d="M182.222+77.025L182.222+52.772C169.601+55.358+157.375+60.319+146.274+67.712L163.421+84.859C169.32+81.434+175.612+78.807+182.222+77.025Z" opacity="1" fill="#ffffff"/>
<path d="M118.166+95.672C110.696+106.721+105.653+118.901+102.985+131.497L127.284+131.497C129.127+124.913+131.805+118.651+135.281+112.789L118.166+95.672Z" opacity="1" fill="#ffffff"/>
<path d="M122.82+360.033C115.759+367.093+104.27+367.093+97.21+360.033L94.522+357.345C86.228+349.051+79.218+332.134+79.223+320.389L79.218+318.044C79.218+303.104+70.944+283.126+60.376+272.558L32.564+244.746L24.029+253.281L51.846+281.093C60.14+289.387+67.15+306.309+67.15+318.049L67.155+320.394C67.155+335.339+75.429+355.318+85.991+365.88L88.679+368.568C100.445+380.334+119.594+380.334+131.359+368.568L190.981+308.946C185.81+308.598+180.71+308.004+175.688+307.164L122.82+360.033Z" opacity="1" fill="#ffffff"/>
<path d="M221.18+228.992L221.18+253.133C234.574+250.691+247.568+245.591+259.304+237.773L242.152+220.621C235.624+224.425+228.594+227.226+221.18+228.992Z" opacity="1" fill="#ffffff"/>
<path d="M287.412+209.818C295.312+198.129+300.55+185.191+303.084+171.822L278.892+171.822C277.059+179.179+274.182+186.173+270.296+192.706L287.412+209.818Z" opacity="1" fill="#ffffff"/>
<path d="M201.704+0C117.946+0+50.044+67.901+50.044+151.66C50.044+235.419+117.945+303.32+201.703+303.32C285.461+303.32+353.363+235.419+353.363+151.66C353.363+67.901+285.462+0+201.704+0ZM325.07+138.214L273.737+138.214C271.797+128.691+267.89+119.511+262.094+111.247L298.85+74.491C313.524+92.882+322.556+114.847+325.07+138.214ZM215.83+28.396C239.213+31.028+261.127+40.167+279.431+54.918L242.311+92.038C234.134+86.703+225.118+83.206+215.83+81.516C215.83+81.516+215.83+28.396+215.83+28.396ZM188.259+28.293L188.259+81.797C179.222+83.64+170.477+87.204+162.541+92.518L124.53+54.508C142.931+39.839+164.891+30.802+188.259+28.293ZM104.966+73.933L142.977+111.944C137.586+119.829+133.94+128.528+132.01+137.534L78.445+137.534C81.076+114.15+90.216+92.232+104.966+73.933ZM78.337+165.1L131.462+165.1C133.065+174.403+136.48+183.435+141.728+191.657L104.557+228.828C89.883+210.432+80.851+188.472+78.337+165.1ZM160.733+211.64C168.945+217.518+178.08+221.496+187.572+223.524L187.572+274.918C164.191+272.286+142.279+263.147+123.976+248.397L160.733+211.64ZM154.052+153.114C154.052+126.69+175.474+105.268+201.898+105.268C228.322+105.268+249.744+126.69+249.744+153.114C249.744+179.538+228.322+200.96+201.898+200.96C175.474+200.96+154.052+179.538+154.052+153.114ZM215.149+275.021L215.149+224.072C224.949+222.382+234.467+218.706+243.038+212.967L278.878+248.802C260.476+263.475+238.516+272.512+215.149+275.021ZM298.441+229.386L262.601+193.546C268.422+185.031+272.237+175.565+274.019+165.785L324.963+165.785C322.331+189.164+313.192+211.082+298.441+229.386Z" opacity="1" fill="#ffffff"/>
<path d="M126.547+171.136L102.401+171.136C104.751+184.028+109.595+196.536+116.926+207.923L134.145+190.704C130.73+184.556+128.186+178.002+126.547+171.136Z" opacity="1" fill="#ffffff"/>
<path d="M221.18+261.673L221.18+268.109C225.865+267.331+230.473+266.256+234.999+264.924L250.036+249.887C241.88+253.85+233.263+256.794+224.241+258.606L221.18+261.673Z" opacity="1" fill="#ffffff"/>
<path d="M161.501+219.407L144.462+236.446C155.844+244.392+168.454+249.773+181.536+252.548L181.536+228.243C174.47+226.263+167.758+223.304+161.501+219.407Z" opacity="1" fill="#ffffff"/>
<path d="M178.096+153.121C178.096+140.63+188.222+130.504+200.713+130.504C213.204+130.504+223.33+140.63+223.33+153.121C223.33+165.612+213.204+175.738+200.713+175.738C188.222+175.738+178.096+165.612+178.096+153.121Z" opacity="1" fill="#ffffff"/>
</g>
</g>
</svg>
