<svg xmlns="http://www.w3.org/2000/svg" xmlns:xlink="http://www.w3.org/1999/xlink" width="800" zoomAndPan="magnify" viewBox="0 0 600 449.999984" height="600" preserveAspectRatio="xMidYMid meet" version="1.0"><defs><g/></defs><rect x="-60" width="720" fill="#ffffff" y="-44.999998" height="539.99998" fill-opacity="1"/><rect x="-60" width="720" fill="#ffffff" y="-44.999998" height="539.99998" fill-opacity="1"/><rect x="-60" width="720" fill="#ffffff" y="-44.999998" height="539.99998" fill-opacity="1"/><path fill="#000000" d="M 367.5 146.25 L 337.230469 146.25 L 292.230469 191.25 L 324.609375 191.25 L 324.960938 190.898438 L 369.539062 146.355469 C 368.871094 146.285156 368.203125 146.25 367.5 146.25 Z M 390 191.25 L 390 168.75 C 390 163.441406 388.136719 158.519531 385.078125 154.6875 L 348.515625 191.25 Z M 313.394531 146.25 L 280.980469 146.25 L 235.980469 191.25 L 268.359375 191.25 L 313.359375 146.25 Z M 232.5 146.25 C 220.089844 146.25 210 156.339844 210 168.75 L 210 191.25 L 212.144531 191.25 L 257.144531 146.25 Z M 390 202.5 L 210 202.5 L 210 281.25 C 210 293.660156 220.089844 303.75 232.5 303.75 L 367.5 303.75 C 379.910156 303.75 390 293.660156 390 281.25 Z M 390 202.5 " fill-opacity="1" fill-rule="nonzero"/><g fill="#ffffff" fill-opacity="1"><g transform="translate(229.476555, 241.949981)"><g><path d="M 1.390625 -12.84375 L 5.875 -12.84375 C 7.613281 -12.84375 8.90625 -12.582031 9.75 -12.0625 C 10.601562 -11.550781 11.03125 -10.75 11.03125 -9.65625 C 11.03125 -8.925781 10.84375 -8.304688 10.46875 -7.796875 C 10.101562 -7.296875 9.617188 -6.972656 9.015625 -6.828125 L 9.015625 -6.734375 C 9.816406 -6.523438 10.394531 -6.171875 10.75 -5.671875 C 11.101562 -5.179688 11.28125 -4.546875 11.28125 -3.765625 C 11.28125 -2.597656 10.84375 -1.675781 9.96875 -1 C 9.09375 -0.332031 7.898438 0 6.390625 0 L 1.390625 0 Z M 4.859375 -7.921875 L 5.90625 -7.921875 C 6.40625 -7.921875 6.789062 -8.019531 7.0625 -8.21875 C 7.332031 -8.425781 7.46875 -8.734375 7.46875 -9.140625 C 7.46875 -9.859375 6.925781 -10.21875 5.84375 -10.21875 L 4.859375 -10.21875 Z M 4.859375 -5.375 L 4.859375 -2.6875 L 6.078125 -2.6875 C 7.160156 -2.6875 7.703125 -3.140625 7.703125 -4.046875 C 7.703125 -4.472656 7.554688 -4.800781 7.265625 -5.03125 C 6.984375 -5.257812 6.566406 -5.375 6.015625 -5.375 Z M 4.859375 -5.375 "/></g></g><g transform="translate(241.605461, 241.949981)"><g><path d="M 7.6875 0 L 7.015625 -1.3125 L 6.953125 -1.3125 C 6.492188 -0.738281 6.019531 -0.347656 5.53125 -0.140625 C 5.050781 0.0664062 4.429688 0.171875 3.671875 0.171875 C 2.734375 0.171875 1.992188 -0.109375 1.453125 -0.671875 C 0.921875 -1.234375 0.65625 -2.023438 0.65625 -3.046875 C 0.65625 -4.097656 1.019531 -4.882812 1.75 -5.40625 C 2.488281 -5.925781 3.5625 -6.21875 4.96875 -6.28125 L 6.625 -6.34375 L 6.625 -6.484375 C 6.625 -7.296875 6.222656 -7.703125 5.421875 -7.703125 C 4.691406 -7.703125 3.765625 -7.457031 2.640625 -6.96875 L 1.65625 -9.234375 C 2.8125 -9.835938 4.273438 -10.140625 6.046875 -10.140625 C 7.328125 -10.140625 8.316406 -9.820312 9.015625 -9.1875 C 9.710938 -8.550781 10.0625 -7.664062 10.0625 -6.53125 L 10.0625 0 Z M 5.140625 -2.25 C 5.546875 -2.25 5.894531 -2.378906 6.1875 -2.640625 C 6.488281 -2.910156 6.640625 -3.253906 6.640625 -3.671875 L 6.640625 -4.453125 L 5.859375 -4.40625 C 4.722656 -4.363281 4.15625 -3.953125 4.15625 -3.171875 C 4.15625 -2.554688 4.484375 -2.25 5.140625 -2.25 Z M 5.140625 -2.25 "/></g></g><g transform="translate(252.820304, 241.949981)"><g><path d="M 5.71875 0.171875 C 4.09375 0.171875 2.859375 -0.265625 2.015625 -1.140625 C 1.171875 -2.023438 0.75 -3.289062 0.75 -4.9375 C 0.75 -6.582031 1.203125 -7.859375 2.109375 -8.765625 C 3.023438 -9.679688 4.320312 -10.140625 6 -10.140625 C 7.144531 -10.140625 8.226562 -9.882812 9.25 -9.375 L 8.25 -6.84375 C 7.832031 -7.019531 7.445312 -7.160156 7.09375 -7.265625 C 6.738281 -7.378906 6.375 -7.4375 6 -7.4375 C 5.4375 -7.4375 5.003906 -7.21875 4.703125 -6.78125 C 4.398438 -6.351562 4.25 -5.742188 4.25 -4.953125 C 4.25 -3.359375 4.835938 -2.5625 6.015625 -2.5625 C 7.023438 -2.5625 7.988281 -2.851562 8.90625 -3.4375 L 8.90625 -0.703125 C 8.019531 -0.117188 6.957031 0.171875 5.71875 0.171875 Z M 5.71875 0.171875 "/></g></g><g transform="translate(262.523428, 241.949981)"><g><path d="M 4.515625 -5.59375 C 4.929688 -6.257812 5.285156 -6.773438 5.578125 -7.140625 L 7.8125 -9.953125 L 11.640625 -9.953125 L 8.1875 -5.71875 L 11.859375 0 L 7.9375 0 L 5.75 -3.5625 L 4.640625 -2.71875 L 4.640625 0 L 1.1875 0 L 1.1875 -13.671875 L 4.640625 -13.671875 L 4.640625 -8.296875 C 4.640625 -7.378906 4.578125 -6.476562 4.453125 -5.59375 Z M 4.515625 -5.59375 "/></g></g><g transform="translate(274.388662, 241.949981)"><g/></g><g transform="translate(279.064443, 241.949981)"><g><path d="M 6.0625 -2.546875 C 6.53125 -2.546875 7.082031 -2.660156 7.71875 -2.890625 L 7.71875 -0.375 C 7.257812 -0.175781 6.820312 -0.0351562 6.40625 0.046875 C 5.988281 0.128906 5.5 0.171875 4.9375 0.171875 C 3.78125 0.171875 2.945312 -0.109375 2.4375 -0.671875 C 1.925781 -1.234375 1.671875 -2.101562 1.671875 -3.28125 L 1.671875 -7.390625 L 0.46875 -7.390625 L 0.46875 -8.78125 L 2 -9.859375 L 2.890625 -11.953125 L 5.140625 -11.953125 L 5.140625 -9.953125 L 7.578125 -9.953125 L 7.578125 -7.390625 L 5.140625 -7.390625 L 5.140625 -3.5 C 5.140625 -2.863281 5.445312 -2.546875 6.0625 -2.546875 Z M 6.0625 -2.546875 "/></g></g><g transform="translate(287.343739, 241.949981)"><g><path d="M 10.703125 -5 C 10.703125 -3.375 10.257812 -2.101562 9.375 -1.1875 C 8.5 -0.28125 7.273438 0.171875 5.703125 0.171875 C 4.191406 0.171875 2.988281 -0.289062 2.09375 -1.21875 C 1.195312 -2.15625 0.75 -3.414062 0.75 -5 C 0.75 -6.625 1.1875 -7.882812 2.0625 -8.78125 C 2.945312 -9.6875 4.175781 -10.140625 5.75 -10.140625 C 6.726562 -10.140625 7.59375 -9.929688 8.34375 -9.515625 C 9.09375 -9.097656 9.671875 -8.5 10.078125 -7.71875 C 10.492188 -6.945312 10.703125 -6.039062 10.703125 -5 Z M 4.25 -5 C 4.25 -4.144531 4.363281 -3.492188 4.59375 -3.046875 C 4.820312 -2.597656 5.203125 -2.375 5.734375 -2.375 C 6.273438 -2.375 6.65625 -2.597656 6.875 -3.046875 C 7.09375 -3.492188 7.203125 -4.144531 7.203125 -5 C 7.203125 -5.851562 7.085938 -6.492188 6.859375 -6.921875 C 6.640625 -7.359375 6.257812 -7.578125 5.71875 -7.578125 C 5.195312 -7.578125 4.820312 -7.359375 4.59375 -6.921875 C 4.363281 -6.492188 4.25 -5.851562 4.25 -5 Z M 4.25 -5 "/></g></g><g transform="translate(298.813464, 241.949981)"><g/></g><g transform="translate(303.489245, 241.949981)"><g><path d="M 13.40625 0 L 13.40625 -5.421875 C 13.40625 -6.085938 13.3125 -6.585938 13.125 -6.921875 C 12.945312 -7.265625 12.660156 -7.4375 12.265625 -7.4375 C 11.734375 -7.4375 11.34375 -7.207031 11.09375 -6.75 C 10.851562 -6.300781 10.734375 -5.597656 10.734375 -4.640625 L 10.734375 0 L 7.28125 0 L 7.28125 -5.421875 C 7.28125 -6.085938 7.191406 -6.585938 7.015625 -6.921875 C 6.847656 -7.265625 6.566406 -7.4375 6.171875 -7.4375 C 5.628906 -7.4375 5.234375 -7.195312 4.984375 -6.71875 C 4.742188 -6.238281 4.625 -5.453125 4.625 -4.359375 L 4.625 0 L 1.1875 0 L 1.1875 -9.953125 L 3.78125 -9.953125 L 4.203125 -8.734375 L 4.40625 -8.734375 C 4.675781 -9.179688 5.0625 -9.523438 5.5625 -9.765625 C 6.0625 -10.015625 6.628906 -10.140625 7.265625 -10.140625 C 8.703125 -10.140625 9.710938 -9.703125 10.296875 -8.828125 L 10.5625 -8.828125 C 10.84375 -9.234375 11.234375 -9.550781 11.734375 -9.78125 C 12.234375 -10.019531 12.785156 -10.140625 13.390625 -10.140625 C 14.566406 -10.140625 15.4375 -9.835938 16 -9.234375 C 16.5625 -8.628906 16.84375 -7.710938 16.84375 -6.484375 L 16.84375 0 Z M 13.40625 0 "/></g></g><g transform="translate(321.489244, 241.949981)"><g><path d="M 10.703125 -5 C 10.703125 -3.375 10.257812 -2.101562 9.375 -1.1875 C 8.5 -0.28125 7.273438 0.171875 5.703125 0.171875 C 4.191406 0.171875 2.988281 -0.289062 2.09375 -1.21875 C 1.195312 -2.15625 0.75 -3.414062 0.75 -5 C 0.75 -6.625 1.1875 -7.882812 2.0625 -8.78125 C 2.945312 -9.6875 4.175781 -10.140625 5.75 -10.140625 C 6.726562 -10.140625 7.59375 -9.929688 8.34375 -9.515625 C 9.09375 -9.097656 9.671875 -8.5 10.078125 -7.71875 C 10.492188 -6.945312 10.703125 -6.039062 10.703125 -5 Z M 4.25 -5 C 4.25 -4.144531 4.363281 -3.492188 4.59375 -3.046875 C 4.820312 -2.597656 5.203125 -2.375 5.734375 -2.375 C 6.273438 -2.375 6.65625 -2.597656 6.875 -3.046875 C 7.09375 -3.492188 7.203125 -4.144531 7.203125 -5 C 7.203125 -5.851562 7.085938 -6.492188 6.859375 -6.921875 C 6.640625 -7.359375 6.257812 -7.578125 5.71875 -7.578125 C 5.195312 -7.578125 4.820312 -7.359375 4.59375 -6.921875 C 4.363281 -6.492188 4.25 -5.851562 4.25 -5 Z M 4.25 -5 "/></g></g><g transform="translate(332.95897, 241.949981)"><g><path d="M 3.796875 0 L 0 -9.953125 L 3.59375 -9.953125 L 5.28125 -4.0625 C 5.28125 -4.039062 5.285156 -3.992188 5.296875 -3.921875 C 5.316406 -3.847656 5.335938 -3.765625 5.359375 -3.671875 C 5.378906 -3.578125 5.394531 -3.472656 5.40625 -3.359375 C 5.425781 -3.253906 5.4375 -3.15625 5.4375 -3.0625 L 5.5 -3.0625 C 5.5 -3.363281 5.550781 -3.691406 5.65625 -4.046875 L 7.421875 -9.953125 L 11 -9.953125 L 7.203125 0 Z M 3.796875 0 "/></g></g><g transform="translate(343.954086, 241.949981)"><g><path d="M 4.640625 0 L 1.203125 0 L 1.203125 -9.953125 L 4.640625 -9.953125 Z M 1.109375 -12.4375 C 1.109375 -12.945312 1.253906 -13.328125 1.546875 -13.578125 C 1.835938 -13.835938 2.300781 -13.96875 2.9375 -13.96875 C 3.570312 -13.96875 4.035156 -13.835938 4.328125 -13.578125 C 4.617188 -13.316406 4.765625 -12.9375 4.765625 -12.4375 C 4.765625 -11.425781 4.15625 -10.921875 2.9375 -10.921875 C 1.71875 -10.921875 1.109375 -11.425781 1.109375 -12.4375 Z M 1.109375 -12.4375 "/></g></g><g transform="translate(349.807601, 241.949981)"><g><path d="M 6 0.171875 C 4.332031 0.171875 3.039062 -0.265625 2.125 -1.140625 C 1.207031 -2.023438 0.75 -3.28125 0.75 -4.90625 C 0.75 -6.59375 1.175781 -7.882812 2.03125 -8.78125 C 2.882812 -9.6875 4.097656 -10.140625 5.671875 -10.140625 C 7.171875 -10.140625 8.328125 -9.742188 9.140625 -8.953125 C 9.960938 -8.171875 10.375 -7.046875 10.375 -5.578125 L 10.375 -4.046875 L 4.234375 -4.046875 C 4.253906 -3.492188 4.457031 -3.054688 4.84375 -2.734375 C 5.226562 -2.421875 5.75 -2.265625 6.40625 -2.265625 C 7.007812 -2.265625 7.5625 -2.320312 8.0625 -2.4375 C 8.570312 -2.550781 9.125 -2.75 9.71875 -3.03125 L 9.71875 -0.546875 C 9.175781 -0.273438 8.617188 -0.0859375 8.046875 0.015625 C 7.472656 0.117188 6.789062 0.171875 6 0.171875 Z M 5.796875 -7.796875 C 5.390625 -7.796875 5.050781 -7.664062 4.78125 -7.40625 C 4.507812 -7.15625 4.347656 -6.757812 4.296875 -6.21875 L 7.25 -6.21875 C 7.238281 -6.695312 7.101562 -7.078125 6.84375 -7.359375 C 6.582031 -7.648438 6.234375 -7.796875 5.796875 -7.796875 Z M 5.796875 -7.796875 "/></g></g><g transform="translate(360.934553, 241.949981)"><g><path d="M 8.875 -3.0625 C 8.875 -1.988281 8.507812 -1.179688 7.78125 -0.640625 C 7.0625 -0.0976562 6.019531 0.171875 4.65625 0.171875 C 3.914062 0.171875 3.273438 0.128906 2.734375 0.046875 C 2.191406 -0.0234375 1.632812 -0.164062 1.0625 -0.375 L 1.0625 -3.125 C 1.59375 -2.894531 2.175781 -2.703125 2.8125 -2.546875 C 3.445312 -2.398438 4.015625 -2.328125 4.515625 -2.328125 C 5.265625 -2.328125 5.640625 -2.492188 5.640625 -2.828125 C 5.640625 -3.003906 5.535156 -3.160156 5.328125 -3.296875 C 5.117188 -3.429688 4.507812 -3.703125 3.5 -4.109375 C 2.59375 -4.484375 1.957031 -4.90625 1.59375 -5.375 C 1.226562 -5.851562 1.046875 -6.460938 1.046875 -7.203125 C 1.046875 -8.128906 1.398438 -8.847656 2.109375 -9.359375 C 2.828125 -9.878906 3.84375 -10.140625 5.15625 -10.140625 C 5.8125 -10.140625 6.425781 -10.066406 7 -9.921875 C 7.570312 -9.773438 8.171875 -9.566406 8.796875 -9.296875 L 7.859375 -7.078125 C 7.410156 -7.285156 6.929688 -7.457031 6.421875 -7.59375 C 5.910156 -7.738281 5.492188 -7.8125 5.171875 -7.8125 C 4.609375 -7.8125 4.328125 -7.675781 4.328125 -7.40625 C 4.328125 -7.226562 4.421875 -7.078125 4.609375 -6.953125 C 4.804688 -6.835938 5.375 -6.597656 6.3125 -6.234375 C 7.007812 -5.941406 7.53125 -5.65625 7.875 -5.375 C 8.21875 -5.101562 8.46875 -4.78125 8.625 -4.40625 C 8.789062 -4.039062 8.875 -3.59375 8.875 -3.0625 Z M 8.875 -3.0625 "/></g></g></g></svg>