<?xml version="1.0" encoding="utf-8"?><svg xml:space="preserve" viewBox="0 0 100 100" y="0px" x="0px" xmlns:xlink="http://www.w3.org/1999/xlink" xmlns="http://www.w3.org/2000/svg" id="圖層_1" version="1.1" width="343px" height="343px" style="width:100%;height:100%;background-size:initial;background-repeat-y:initial;background-repeat-x:initial;background-position-y:initial;background-position-x:initial;background-origin:initial;background-image:initial;background-color:rgb(0, 0, 0);background-clip:initial;background-attachment:initial;animation-play-state:paused" ><g class="ldl-scale" style="transform-origin:50% 50%;transform:rotate(0deg) scale(0.45, 0.45);animation-play-state:paused" ><g style="animation-play-state:paused" ><path d="M29,20.1c0.4-2.2,2.6-3.9,4.8-3.7c-0.5-2.6,1.3-5.4,3.9-6.2c2.6-0.7,5.6,0.7,6.6,3.2c2.1-1.2,5-0.6,6.4,1.3 c1.4,1.9,1.1,4.9-0.6,6.5c1.8,2.6,1.2,6.5-1.1,8.6s-6.3,2-8.7-0.1c-1.5,1.8-4.4,2.3-6.3,1c-2.2-1.4-1.4-3.3-2.2-5.3 C30.7,23.4,28.5,22.9,29,20.1z" stroke-miterlimit="10" stroke-linejoin="round" stroke-linecap="round" stroke-width="3.5" stroke="#333333" fill="#F5E169" style="stroke:rgb(51, 51, 51);fill:rgb(245, 225, 105);animation-play-state:paused" ></path>
<path d="M67.3,21c2.1-1.6,5.6-0.7,6.7,1.7c1.1,2.4-0.5,5.6-3.1,6.2c1.1,1.5,0.9,3.9-0.4,5.3c-1.3,1.4-3.4,1.8-5.3,1.3 c-1.8-0.5-3.4-1.9-4.3-3.6c-1.8,1.1-4,1.5-5.9,0.8c-1.9-0.7-3.5-2.6-3.5-4.6c0-2.1,2-4,4-3.8c-2.3-0.2-2.3-4.2-1.4-5.6 c1.1-1.5,3.8-3.1,5.4-4.1c2.3-1.4,5.1-2.1,7.1,0.2C68.1,16.5,68.5,19.1,67.3,21z" stroke-miterlimit="10" stroke-linejoin="round" stroke-linecap="round" stroke-width="3.5" stroke="#333333" fill="#F5E169" style="stroke:rgb(51, 51, 51);fill:rgb(245, 225, 105);animation-play-state:paused" ></path>
<path d="M42.7,21.1c1.3-2.7,5.3-3.5,7.5-1.6c2.2,1.9,2,6-0.5,7.6c1.9,0.1,3.6,2.1,3.2,4c-0.4,1.9-2.6,3.2-4.5,2.6c1.2,1.1,1.2,3.2,0.1,4.5 c-1.1,1.3-2.8,1.8-4.5,1.6c-2.3-0.2-4.4-1.6-5.5-3.6c0,0-2.6-0.5-3-0.7c-1-0.6-1.8-1.4-2.3-2.5c-1.2-2.6,0.5-4.4,1.2-6.8 c0.6-1.9,0.4-3.8,2-5.3C38.3,19.4,41.1,19.3,42.7,21.1z" stroke-miterlimit="10" stroke-linejoin="round" stroke-linecap="round" stroke-width="3.5" stroke="#333333" fill="#F5E169" style="stroke:rgb(51, 51, 51);fill:rgb(245, 225, 105);animation-play-state:paused" ></path>
<path d="M46,29c0.1-2.6,2.7-4.8,5.3-4.6s4.7,2.9,4.4,5.5c2.2-1,5-0.5,6.7,1.3c1.7,1.7,2.1,4.6,1,6.7c1.5,1.4,1.7,3.8,0.7,5.5 c-1,1.8-2.9,2.9-4.9,3.1c-2,0.3-4-0.2-5.9-0.9c-1.1,2.5-3.8,4.1-6.5,3.8c-2.7-0.3-5-2.5-5.5-5.2c-0.5-2.6,1-5.5,3.4-6.7 c-2.1-1-3-3.9-2-6c1-2.1,3.8-3.1,5.9-2.1" stroke-miterlimit="10" stroke-linejoin="round" stroke-linecap="round" stroke-width="3.5" stroke="#333333" fill="#F5E169" style="stroke:rgb(51, 51, 51);fill:rgb(245, 225, 105);animation-play-state:paused" ></path>
<path d="M77.1,34.4c0.8,2.3-0.8,5.2-3.2,5.7c1.4,0.4,2.2,2,2,3.5c-0.3,1.4-1.4,2.6-2.6,3.3c-1.9,1-4.2,1.2-6.2,0.4c-2-0.8-3.6-2.5-4.3-4.5 c-1.2,1.7-3.8,2.1-5.6,0.9c-1.7-1.2-2.4-3.6-1.8-5.6c0.6-2.1,2.4-3.4,4.3-4.2c-3.1-2.6-0.6-7.1,2.7-7.8c4-0.9,8.2,1.4,8.9,5.6 C73.4,31,76.2,32,77.1,34.4z" stroke-miterlimit="10" stroke-linejoin="round" stroke-linecap="round" stroke-width="3.5" stroke="#333333" fill="#F5E169" style="stroke:rgb(51, 51, 51);fill:rgb(245, 225, 105);animation-play-state:paused" ></path>
<path d="M22.9,33.2c0.4-1.7,1.9-3,3.6-3.2c-0.3-2.8,2.2-5.6,5.1-5.5s5.3,2.9,4.9,5.7c1.8-0.2,3.7,0.8,4.5,2.5c0.8,1.6,0.5,3.8-0.8,5.1 c0.7,0.7,0.6,1.9,0.1,2.6c-0.6,0.8-1.5,1.3-2.3,1.7c-1.4,0.7-2.8,1.4-4.4,1.5c-1.5,0.1-3.2-0.7-3.8-2.2c-1,1.1-2.9,1.2-4,0.3 c-1.3-1-0.9-2.5-1.4-3.9C23.7,36.1,22.4,35.3,22.9,33.2z" stroke-miterlimit="10" stroke-linejoin="round" stroke-linecap="round" stroke-width="3.5" stroke="#333333" fill="#F5E169" style="stroke:rgb(51, 51, 51);fill:rgb(245, 225, 105);animation-play-state:paused" ></path></g>
<g style="animation-play-state:paused" ><polygon points="73.4,90 26.6,90 22,38.6 78,38.6" stroke-miterlimit="10" stroke-linejoin="round" stroke-linecap="round" stroke-width="3.5" stroke="#333333" fill="#E15C64" style="stroke:rgb(51, 51, 51);fill:rgb(225, 92, 100);animation-play-state:paused" ></polygon>
<line y2="90" x2="50" y1="39.9" x1="50" stroke-miterlimit="10" stroke-linejoin="round" stroke-linecap="round" stroke-width="3.5" stroke="#333333" fill="none" style="stroke:rgb(51, 51, 51);animation-play-state:paused" ></line>
<line y2="90" x2="62" y1="39.9" x1="63.9" stroke-miterlimit="10" stroke-linejoin="round" stroke-linecap="round" stroke-width="3.5" stroke="#333333" fill="none" style="stroke:rgb(51, 51, 51);animation-play-state:paused" ></line>
<line y2="90" x2="38" y1="39.9" x1="36.1" stroke-miterlimit="10" stroke-linejoin="round" stroke-linecap="round" stroke-width="3.5" stroke="#333333" fill="none" style="stroke:rgb(51, 51, 51);animation-play-state:paused" ></line>
<circle r="13.8" cy="65.6" cx="50" stroke-miterlimit="10" stroke-linejoin="round" stroke-linecap="round" stroke-width="3.5" stroke="#333333" fill="#FFF7E9" style="stroke:rgb(51, 51, 51);fill:rgb(255, 247, 233);animation-play-state:paused" ></circle></g>
<metadata xmlns:d="https://loading.io/stock/" style="animation-play-state:paused" ><d:name style="animation-play-state:paused" >popcorn</d:name>


<d:tags style="animation-play-state:paused" >movie,food,snacks,corn,leisure,recreation,entertainment,eat,popcorn</d:tags>


<d:license style="animation-play-state:paused" >by</d:license>


<d:slug style="animation-play-state:paused" >ry95j1</d:slug></metadata></g><!-- generated by https://loading.io/ --></svg>