<svg id="Capa_1" enable-background="new 0 0 512 512" height="512" viewBox="0 0 512 512" width="512" xmlns="http://www.w3.org/2000/svg"><g><path d="m490.558 71.065-72.748 15.641-22.668.697-27.876 10.17-53.076 11.411-21.984 1.763-28.56 9.104-53.077 11.412-23.077-.951-27.467 11.818-53.076 11.411-23.726-.998-26.818 11.865-38.713 8.323-13.793-64.152c-.802-3.73 1.572-7.403 5.301-8.205l72.748-15.641 22.033-2.22 28.511-8.647 53.077-11.412 23.933-2.174 26.61-8.693 53.077-11.412 23.47-2.572 27.073-8.295 53.077-11.412 23.675-2.081 26.869-8.786 31.96-6.871c3.73-.802 7.403 1.572 8.205 5.301l12.341 57.4c.802 3.731-1.571 7.404-5.301 8.206z" fill="#8b8089"/><path d="m490.556 71.062-16.857 3.622c1.709-1.658 2.543-4.14 2.004-6.643l-12.818-59.604c-.458-2.146-1.841-3.866-3.642-4.822l16.073-3.459c3.723-.804 7.396 1.577 8.199 5.3l12.34 57.406c.805 3.723-1.566 7.406-5.299 8.2z" fill="#7b7179"/><g fill="#fdf6ec"><path d="m106.949 153.542-50.544 10.867 25.543-79.676 50.544-10.867z"/><path d="m210.569 131.263-50.544 10.867 25.544-79.676 50.543-10.867z"/><path d="m314.19 108.985-50.544 10.867 25.543-79.676 50.544-10.867z"/><path d="m417.81 86.706-50.544 10.867 25.543-79.676 50.544-10.867z"/></g><g fill="#fef1da"><path d="m132.488 73.869-25.534 79.675-20.203 4.344 24.079-79.359z"/><path d="m236.11 51.59-25.544 79.675-20.184 4.344 24.07-79.359z"/><path d="m339.732 29.312-25.545 79.674-20.183 4.344 24.069-79.359z"/><path d="m443.353 7.033-25.544 79.674-20.183 4.344 24.069-79.359z"/></g><path d="m478.177 512h-430.427c-5.519 0-9.993-4.474-9.993-9.993v-267.071h450.413v267.071c0 5.519-4.474 9.993-9.993 9.993z" fill="#d7d0d6"/><path d="m488.175 240.746v255.453c0 5.514-4.476 9.99-10 9.99h-20.345c5.524 0 10-4.476 10-9.99v-255.453z" fill="#c9bfc8"/><path d="m501.345 240.746h-74.41l-22.578-2.523-29.121 2.523h-54.289l-24.033-3.265-27.666 3.265h-54.29l-21.897-3.702-29.802 3.702h-54.289l-24.125-2.98-27.574 2.98h-32.69c-3.815 0-6.907-3.093-6.907-6.907v-65.619h81.318l23.097 4.513 28.602-4.513h54.289l25.535 3.718 26.163-3.718h54.29l22.486 3.371 29.212-3.371h54.291l24.128 4.513 27.571-4.513h32.69c3.815 0 6.908 3.093 6.908 6.907v58.712c-.001 3.814-3.094 6.907-6.909 6.907z" fill="#8b8089"/><path d="m508.257 175.131v58.708c0 3.815-3.093 6.907-6.907 6.907h-20.092c3.825 0 6.918-3.092 6.918-6.907v-58.708c0-3.815-3.093-6.907-6.918-6.907h20.092c3.814 0 6.907 3.092 6.907 6.907z" fill="#7b7179"/><path d="m431.986 369.539h-338.045c-5.023 0-9.095-4.072-9.095-9.095v-68.585c0-5.023 4.072-9.095 9.095-9.095h338.045c5.023 0 9.095 4.072 9.095 9.095v68.585c0 5.023-4.072 9.095-9.095 9.095z" fill="#fdf6ec"/><path d="m441.085 291.855v68.586c0 5.025-4.079 9.095-9.095 9.095h-20.346c5.015 0 9.095-4.069 9.095-9.095v-68.586c0-5.015-4.079-9.095-9.095-9.095h20.346c5.015.001 9.095 4.08 9.095 9.095z" fill="#fef1da"/><g><path d="m441.081 418.273h-356.236c-4.214 0-7.63-3.416-7.63-7.63s3.415-7.63 7.63-7.63h356.236c4.214 0 7.63 3.416 7.63 7.63s-3.416 7.63-7.63 7.63z" fill="#8b8089"/></g><g><path d="m441.081 451.156h-356.236c-4.214 0-7.63-3.416-7.63-7.63s3.415-7.63 7.63-7.63h356.236c4.214 0 7.63 3.416 7.63 7.63s-3.416 7.63-7.63 7.63z" fill="#8b8089"/></g><g fill="#fdf6ec"><path d="m108.97 240.746h-51.698l41.72-72.527h51.699z"/><path d="m214.959 240.746h-51.699l41.72-72.527h51.699z"/><path d="m320.947 240.746h-51.699l41.72-72.527h51.699z"/><path d="m426.935 240.746h-51.699l41.72-72.527h51.699z"/></g><g fill="#fef1da"><path d="m150.688 168.224-41.72 72.522h-24.028l41.719-72.522z"/><path d="m256.68 168.224-41.72 72.522h-24.028l41.719-72.522z"/><path d="m362.672 168.224-41.73 72.522h-24.028l41.729-72.522z"/><path d="m468.654 168.224-41.72 72.522h-24.028l41.719-72.522z"/></g></g></svg>