<svg xmlns="http://www.w3.org/2000/svg" xmlns:xlink="http://www.w3.org/1999/xlink" version="1.1" x="0px" y="0px" viewBox="-909 491 100 100" style="enable-background:new -909 491 100 100;" xml:space="preserve"><circle cx="-875.3" cy="528.1" r="4.7"/><circle cx="-846.2" cy="528.1" r="4.7"/><path d="M-835.6,507.5c-7.7-1.4-15.6-2.2-23.4-2.2c-7.7-0.1-15.6,0.5-23.4,1.8c-5.7,1-11.4,6.5-12.6,12.3  c-1.4,7.2-2.1,14.4-2.1,21.6s0.7,14.4,2.1,21.7c1.2,5.7,6.8,11.2,12.6,12.3c7.3,1.2,14.8,1.8,22.1,1.8c0.4,0,0.8,0,1.2,0  c7.8-0.1,15.6-0.8,23.4-2.2c0,0,0,0,0,0c5.7-1.1,11.3-6.6,12.5-12.3c1.4-7,2.1-14.2,2.1-21.2c0-7-0.7-14.2-2.1-21.2  C-824.3,514.1-829.9,508.6-835.6,507.5z M-830,560.8c-0.6,2.8-4,6.2-6.9,6.8c-7.3,1.3-14.8,2.1-22.1,2.1c-7.4,0.1-14.8-0.5-22.1-1.7  c-2.9-0.5-6.3-3.9-6.9-6.7c-1.3-6.7-2-13.5-2-20.3c0-6.7,0.7-13.6,2-20.2c0.6-2.9,4-6.3,6.9-6.8c7-1.1,14-1.7,21-1.7  c0.4,0,0.8,0,1.2,0c7.4,0.1,14.8,0.8,22.1,2.1c2.9,0.6,6.4,3.9,6.9,6.7c1.3,6.6,1.9,13.3,1.9,19.9C-828,547.6-828.7,554.3-830,560.8  z"/><path d="M-844.4,547.3c-1.4-1.3-3.5-1.2-4.8,0.1l-3.5,3.5l-3.9-3.6c-1.4-1.3-3.5-1.2-4.8,0.1l-3.6,3.6l-3.9-3.6  c-1.4-1.3-3.5-1.2-4.8,0.1l-6,5.9c-1.4,1.4-1.4,3.6,0,4.9c1.4,1.4,3.6,1.4,5,0l3.6-3.5l3.9,3.6c0.7,0.6,1.5,0.9,2.4,0.9c0,0,0,0,0,0  c0.9,0,1.8-0.3,2.5-1l3.6-3.5l3.4,3.2c0.1,0.1,0.2,0.2,0.3,0.3c0.7,0.7,1.6,1,2.5,1c0,0,0,0,0.1,0c0.9,0,1.9-0.4,2.6-1.1  c0.1-0.1,0.2-0.2,0.3-0.4l3.1-3.1l3.9,3.6c0.7,0.6,1.5,0.9,2.4,0.9c0.9,0,1.9-0.4,2.6-1.1c1.3-1.4,1.2-3.6-0.2-4.9L-844.4,547.3z"/></svg>