<svg xmlns="http://www.w3.org/2000/svg" xmlns:xlink="http://www.w3.org/1999/xlink" version="1.0" x="0px" y="0px" viewBox="0 0 26 32.5" enable-background="new 0 0 26 26" xml:space="preserve"><path d="M21.019,24c-0.004,0.001-0.012,0.001-0.02,0h-6c-0.266,0-0.52-0.105-0.707-0.293l-10-10c-0.391-0.391-0.391-1.023,0-1.414  l10-10C14.479,2.105,14.733,2,14.999,2h6c0.404,0,0.77,0.243,0.924,0.617c0.155,0.374,0.069,0.804-0.217,1.09L12.413,13l9.185,9.184  c0.255,0.182,0.421,0.479,0.421,0.816C22.019,23.553,21.571,24,21.019,24z M15.413,22h3.172l-8.293-8.293  c-0.391-0.391-0.391-1.023,0-1.414L18.585,4h-3.172l-9,9L15.413,22z"/></svg>