<svg xmlns="http://www.w3.org/2000/svg" xmlns:xlink="http://www.w3.org/1999/xlink" version="1.1" baseProfile="tiny" x="0px" y="0px" viewBox="0 0 100 100" xml:space="preserve"><path d="M65.5,24.75h-31c-4.136,0-7.5,3.364-7.5,7.5v35.5c0,4.136,3.364,7.5,7.5,7.5h31c4.136,0,7.5-3.364,7.5-7.5v-35.5  C73,28.114,69.636,24.75,65.5,24.75z M62.5,52.5H68V55h-5.5V52.5z M62.5,47.5V45H68v2.5H62.5z M62.5,40v-2.5H68V40H62.5z M57.5,47.5  h-15V29.75h15V47.5z M37.5,55H32v-2.5h5.5V55z M32,47.5V45h5.5v2.5H32z M37.5,40H32v-2.5h5.5V40z M32,60h5.5v2.5H32V60z M42.5,52.5  h15v17.75h-15V52.5z M62.5,60H68v2.5h-5.5V60z M68,32.25v0.25h-5.5v-2.75h3C66.879,29.75,68,30.871,68,32.25z M34.5,29.75h3v2.75H32  v-0.25C32,30.871,33.121,29.75,34.5,29.75z M32,67.75V67.5h5.5v2.75h-3C33.121,70.25,32,69.129,32,67.75z M65.5,70.25h-3V67.5H68  v0.25C68,69.129,66.879,70.25,65.5,70.25z"/></svg>