<?xml version="1.0" encoding="utf-8"?>
<!-- Generator: Adobe Illustrator 24.0.1, SVG Export Plug-In . SVG Version: 6.00 Build 0)  -->
<svg version="1.1" id="Layer_1" xmlns="http://www.w3.org/2000/svg" xmlns:xlink="http://www.w3.org/1999/xlink" x="0px" y="0px"
	 viewBox="0 0 512 512" style="enable-background:new 0 0 512 512;" xml:space="preserve">
<style type="text/css">
	.st0{fill:#FFFFFF;}
</style>
<g>
	<g>
		<path class="st0" d="M256,512c141.2,0,256-114.8,256-256S397.2,0,256,0S0,114.8,0,256S114.8,512,256,512z M176.9,240.9
			l106.7-106.7c4.2-4.2,9.6-6.3,15.1-6.3c5.5,0,10.9,2.1,15.1,6.3c8.3,8.3,8.3,21.8,0,30.2L222.2,256l91.6,91.6
			c8.3,8.3,8.3,21.8,0,30.2s-21.8,8.3-30.2,0L176.9,271.1C168.6,262.7,168.6,249.3,176.9,240.9z"/>
	</g>
</g>
</svg>
