<?xml version="1.0" encoding="utf-8"?>
<!-- Generator: Adobe Illustrator 16.0.0, SVG Export Plug-In . SVG Version: 6.00 Build 0)  -->
<!DOCTYPE svg PUBLIC "-//W3C//DTD SVG 1.1//EN" "http://www.w3.org/Graphics/SVG/1.1/DTD/svg11.dtd">
<svg version="1.1" id="Layer_1" xmlns="http://www.w3.org/2000/svg" xmlns:xlink="http://www.w3.org/1999/xlink" x="0px" y="0px"
	 width="36px" height="36px" viewBox="0 0 36 36" enable-background="new 0 0 36 36" xml:space="preserve">
<path fill="none" d="M34.618,29.807h24v24h-24V29.807z"/>
<path fill="#FFFFFF" d="M18,0C8.059,0,0,8.059,0,18c0,9.941,8.059,18,18,18s18-8.06,18-18C36,8.059,27.941,0,18,0z M21.37,27.783
	c-0.698,0.698-1.827,0.698-2.524,0l-8.215-8.214c-0.698-0.697-0.698-1.826,0-2.524l8.215-8.215c0.697-0.698,1.826-0.698,2.524,0
	c0.68,0.68,0.697,1.826,0,2.524l-6.944,6.944l6.944,6.963C22.067,25.958,22.067,27.086,21.37,27.783z"/>
</svg>
