<svg xmlns="http://www.w3.org/2000/svg" xmlns:xlink="http://www.w3.org/1999/xlink" version="1.1" width="256" height="256" viewBox="0 0 256 256" xml:space="preserve">

<defs>
</defs>
<g style="stroke: none; stroke-width: 0; stroke-dasharray: none; stroke-linecap: butt; stroke-linejoin: miter; stroke-miterlimit: 10; fill: none; fill-rule: nonzero; opacity: 1;" transform="translate(1.4065934065934016 1.4065934065934016) scale(2.81 2.81)" >
	<path d="M 45 52.561 c -4.417 0 -7.876 -5.283 -7.876 -12.027 S 40.583 28.507 45 28.507 c 4.416 0 7.876 5.283 7.876 12.026 S 49.416 52.561 45 52.561 z M 45 31.507 c -2.598 0 -4.876 4.218 -4.876 9.026 s 2.278 9.027 4.876 9.027 s 4.876 -4.218 4.876 -9.027 S 47.598 31.507 45 31.507 z" style="stroke: none; stroke-width: 1; stroke-dasharray: none; stroke-linecap: butt; stroke-linejoin: miter; stroke-miterlimit: 10; fill: rgb(225,225,225); fill-rule: nonzero; opacity: 1;" transform=" matrix(1 0 0 1 0 0) " stroke-linecap="round" />
	<path d="M 55.818 29.589 c -2.793 0 -5.638 -3.562 -7.206 -7.573 c -1.792 -4.582 -1.963 -9.862 1.179 -11.09 c 3.143 -1.228 6.598 2.768 8.39 7.349 c 1.791 4.581 1.962 9.861 -1.18 11.09 C 56.61 29.518 56.215 29.589 55.818 29.589 z M 50.981 13.704 c -0.038 0 -0.07 0.005 -0.099 0.016 c -0.511 0.2 -1.126 2.988 0.523 7.204 c 1.649 4.217 3.983 5.849 4.503 5.647 c 0.511 -0.2 1.126 -2.987 -0.522 -7.203 h -0.001 C 53.826 15.379 51.646 13.704 50.981 13.704 z" style="stroke: none; stroke-width: 1; stroke-dasharray: none; stroke-linecap: butt; stroke-linejoin: miter; stroke-miterlimit: 10; fill: rgb(225,225,225); fill-rule: nonzero; opacity: 1;" transform=" matrix(1 0 0 1 0 0) " stroke-linecap="round" />
	<path d="M 34.159 29.579 c -0.478 0 -0.871 -0.101 -1.16 -0.214 c -0.867 -0.339 -2.337 -1.383 -2.452 -4.571 c -0.069 -1.928 0.383 -4.243 1.273 -6.519 l 0 0 c 1.791 -4.581 5.244 -8.576 8.389 -7.349 c 3.14 1.228 2.97 6.508 1.179 11.09 c -0.89 2.276 -2.128 4.284 -3.487 5.653 C 36.405 29.177 35.112 29.579 34.159 29.579 z M 39.019 13.704 c -0.664 0 -2.845 1.675 -4.404 5.664 l 0 0 c -0.733 1.875 -1.123 3.813 -1.069 5.319 c 0.045 1.268 0.394 1.825 0.546 1.884 c 0.151 0.063 0.787 -0.115 1.679 -1.014 c 1.061 -1.069 2.09 -2.758 2.823 -4.633 c 1.648 -4.216 1.034 -7.003 0.522 -7.204 C 39.089 13.709 39.056 13.704 39.019 13.704 z" style="stroke: none; stroke-width: 1; stroke-dasharray: none; stroke-linecap: butt; stroke-linejoin: miter; stroke-miterlimit: 10; fill: rgb(225,225,225); fill-rule: nonzero; opacity: 1;" transform=" matrix(1 0 0 1 0 0) " stroke-linecap="round" />
	<path d="M 45 89.396 c -6.305 0 -8.843 -3.564 -10.883 -6.429 c -1.718 -2.413 -3.075 -4.318 -6.274 -4.51 c -3.393 -0.204 -5.218 1.239 -7.333 2.907 c -2.083 1.645 -4.445 3.518 -8.3 3.276 C 3.89 83.757 -0.192 78.093 0.007 67.8 l 0.017 -0.876 l 0.772 -0.416 c 14.32 -7.707 20.989 -21.167 20.989 -42.357 c 0 -12.982 8.733 -23.544 19.469 -23.546 h 7.492 C 59.482 0.606 68.215 11.168 68.215 24.15 c 0 21.191 6.67 34.65 20.989 42.357 l 0.771 0.416 l 0.018 0.876 c 0.199 10.293 -3.884 15.957 -12.134 16.835 c -3.93 0.239 -6.285 -1.626 -8.369 -3.271 c -2.115 -1.669 -3.946 -3.108 -7.333 -2.907 c -3.199 0.191 -4.556 2.097 -6.273 4.509 C 53.844 85.831 51.305 89.396 45 89.396 z M 27.214 75.438 c 0.262 0 0.531 0.008 0.807 0.024 c 4.631 0.276 6.708 3.191 8.539 5.764 C 38.536 84 40.242 86.396 45 86.396 c 4.759 0 6.465 -2.396 8.439 -5.17 c 1.832 -2.571 3.907 -5.486 8.538 -5.763 c 4.545 -0.269 7.104 1.757 9.371 3.546 c 1.981 1.564 3.55 2.8 6.262 2.638 c 6.328 -0.676 9.346 -4.793 9.39 -12.927 C 72.143 60.372 65.215 46.182 65.215 24.15 c 0 -11.329 -7.39 -20.546 -16.474 -20.546 h -7.483 c -9.083 0 -16.473 9.217 -16.473 20.546 c 0 22.03 -6.928 36.222 -21.785 44.569 c 0.043 8.134 3.063 12.252 9.458 12.933 c 2.648 0.155 4.211 -1.079 6.193 -2.644 C 20.781 77.329 23.178 75.438 27.214 75.438 z" style="stroke: none; stroke-width: 1; stroke-dasharray: none; stroke-linecap: butt; stroke-linejoin: miter; stroke-miterlimit: 10; fill: rgb(225,225,225); fill-rule: nonzero; opacity: 1;" transform=" matrix(1 0 0 1 0 0) " stroke-linecap="round" />
</g>
</svg>