<svg xmlns="http://www.w3.org/2000/svg" xmlns:xlink="http://www.w3.org/1999/xlink" width="1080" zoomAndPan="magnify" viewBox="0 0 810 809.999993" height="1080" preserveAspectRatio="xMidYMid meet" version="1.0"><defs><clipPath id="103827e704"><path d="M 86.617188 86.617188 L 723.367188 86.617188 L 723.367188 723.367188 L 86.617188 723.367188 Z M 86.617188 86.617188 " clip-rule="nonzero"/></clipPath></defs><g clip-path="url(#103827e704)"><path fill="#ffffff" d="M 288.996094 385.546875 L 439.308594 235.234375 C 444.679688 229.921875 451.6875 227.207031 458.753906 227.207031 C 465.761719 227.207031 472.773438 229.921875 478.144531 235.234375 C 488.828125 245.976562 488.882812 263.332031 478.144531 274.070312 L 347.164062 404.992188 L 478.144531 535.917969 C 488.828125 546.65625 488.828125 564.011719 478.144531 574.695312 C 467.402344 585.4375 450.046875 585.4375 439.363281 574.695312 L 288.996094 424.382812 C 278.253906 413.699219 278.253906 396.289062 288.996094 385.546875 Z M 86.617188 404.992188 C 86.617188 580.800781 229.1875 723.367188 404.992188 723.367188 C 580.800781 723.367188 723.367188 580.800781 723.367188 404.992188 C 723.367188 229.128906 580.800781 86.617188 404.992188 86.617188 C 229.1875 86.617188 86.617188 229.128906 86.617188 404.992188 " fill-opacity="1" fill-rule="nonzero"/></g></svg>