<svg xmlns="http://www.w3.org/2000/svg" xmlns:xlink="http://www.w3.org/1999/xlink" width="1080" zoomAndPan="magnify" viewBox="0 0 810 809.999993" height="1080" preserveAspectRatio="xMidYMid meet" version="1.0"><defs><clipPath id="f236aa5b45"><path d="M 24.84375 43.507812 L 785.34375 43.507812 L 785.34375 766.507812 L 24.84375 766.507812 Z M 24.84375 43.507812 " clip-rule="nonzero"/></clipPath></defs><g clip-path="url(#f236aa5b45)"><path fill="#f4c01e" d="M 405.097656 43.507812 L 503.019531 263.613281 C 506.78125 272.070312 512.703125 279.382812 520.191406 284.820312 C 527.679688 290.261719 536.464844 293.628906 545.671875 294.59375 L 785.3125 319.6875 L 606.191406 480.8125 C 599.308594 487.003906 594.183594 494.894531 591.320312 503.695312 C 588.464844 512.492188 587.972656 521.890625 589.898438 530.941406 L 640.082031 766.554688 L 431.457031 646.03125 C 423.441406 641.398438 414.351562 638.964844 405.097656 638.964844 C 395.839844 638.964844 386.75 641.398438 378.738281 646.03125 L 170.109375 766.554688 L 220.292969 530.941406 C 222.222656 521.890625 221.730469 512.492188 218.871094 503.695312 C 216.011719 494.894531 210.882812 487.003906 204.003906 480.8125 L 24.878906 319.6875 L 264.523438 294.59375 C 273.726562 293.628906 282.515625 290.261719 290 284.820312 C 297.488281 279.382812 303.410156 272.070312 307.171875 263.613281 Z M 405.097656 43.507812 " fill-opacity="1" fill-rule="evenodd"/></g></svg>