<svg xmlns="http://www.w3.org/2000/svg" xmlns:xlink="http://www.w3.org/1999/xlink" version="1.1" x="0px" y="0px" viewBox="22.331 22.459 467.801 584.155" style="enable-background:new 22.331 22.459 467.801 467.324;" xml:space="preserve"><g><path d="M421.627,90.901c-44.179-44.136-102.919-68.442-165.4-68.442c-62.478,0-121.215,24.307-165.392,68.442   C46.66,135.035,22.331,193.712,22.331,256.122c0,62.409,24.329,121.085,68.504,165.219   c44.177,44.136,102.914,68.442,165.392,68.442c62.481,0,121.222-24.307,165.4-68.442c44.176-44.133,68.505-102.809,68.505-165.219   C490.132,193.711,465.803,135.035,421.627,90.901z M256.227,481.783c-124.559,0-225.896-101.231-225.896-225.661   c0-124.431,101.336-225.663,225.896-225.663c124.564,0,225.905,101.232,225.905,225.663   C482.132,380.552,380.791,481.783,256.227,481.783z"/><path d="M256.227,63.722c-106.19,0-192.583,86.31-192.583,192.4c0,106.088,86.392,192.397,192.583,192.397   c106.195,0,192.592-86.31,192.592-192.397C448.817,150.032,362.421,63.722,256.227,63.722z M256.227,440.52   c-101.779,0-184.583-82.721-184.583-184.397c0-101.679,82.803-184.4,184.583-184.4c101.783,0,184.591,82.722,184.592,184.4   C440.818,357.799,358.011,440.52,256.227,440.52z"/><path d="M405.324,218.054H269.191v-53.116c0-1.429-0.763-2.75-2-3.464c-1.238-0.714-2.763-0.714-4.001,0l-79.023,45.646   l-79.025,45.536c-1.239,0.714-2.002,2.035-2.003,3.465c0,1.43,0.762,2.751,2,3.466l79.026,45.61l79.027,45.572   c0.618,0.356,1.309,0.535,1.998,0.535c0.691,0,1.382-0.179,2.001-0.536c1.237-0.715,1.999-2.035,1.999-3.464v-53.079h136.133   c2.209,0,4-1.791,4-4v-68.171C409.324,219.845,407.533,218.054,405.324,218.054z M401.324,286.226H265.191c-2.209,0-4,1.791-4,4   v50.155l-73.028-42.113l-73.018-42.143l73.019-42.075l73.027-42.182v50.187c0,2.209,1.791,4,4,4h136.133V286.226z"/></g><text x="22.331" y="504.783" fill="#000000" font-size="5px" font-weight="bold" font-family="'Helvetica Neue', Helvetica, Arial-Unicode, Arial, Sans-serif">Created by ibrandify</text><text x="22.331" y="509.783" fill="#000000" font-size="5px" font-weight="bold" font-family="'Helvetica Neue', Helvetica, Arial-Unicode, Arial, Sans-serif">from the Noun Project</text></svg>