<svg xmlns="http://www.w3.org/2000/svg" xmlns:xlink="http://www.w3.org/1999/xlink" version="1.1" x="0px" y="0px" viewBox="0 0 1024 1280" style="enable-background:new 0 0 1024 1024;" xml:space="preserve"><path d="M960.3,367.1c-14.7-45-36-88-63.5-126.6c-28.1-39.5-61.6-74-100.1-103.5c-37.6-28.8-79.5-51.4-124-67.8  c-45.8-16.8-94.5-26-143.2-27.9c-49.2-1.9-99.1,4.1-146.5,17.5c-45.6,13-89.5,33-129.1,59.1c-39.1,25.8-74.7,57.3-104.5,93.5  c-30.8,37.5-55.5,78.8-74,123.7c-18.5,45-29.3,92.8-33.1,141.2c-3.9,49.3,0.3,99.5,12,147.6c11.2,46.2,29.8,91,54.4,131.6  c24.3,40.1,54.7,76.8,89.7,107.9c35.2,31.3,74.9,57.6,117.8,77c45.5,20.6,93.2,33.7,142.8,39.5c49.4,5.8,99.6,3.2,148.3-6.6  c46.8-9.5,92.3-26.6,134-49.8c40.9-22.8,78.7-52,111-85.9c32.4-34,60.1-72.9,81-114.9c21.4-43.1,36.5-89.2,43.8-136.8  c3.7-24.5,5.9-49.1,5.9-73.8V512C983,463,975.4,413.7,960.3,367.1z M720.2,545c-0.2,0-0.5,0-0.7,0c-16.7,0.3-33.5,0-50.3,0H380.4  l0,0c24,22.2,48,44.4,72.1,66.6c21.8,20.1,43.6,40.3,65.3,60.4c12.3,11.4,10.6,30.8,0,42.4c-11.3,12.3-30.9,10.7-42.4,0  c-7.9-7.3-15.9-14.7-23.8-22c-34.6-32-69.1-63.9-103.7-95.8c-21.8-20.1-43.5-40.3-65.3-60.4c-11.7-10.8-11.4-31.5,0-42.4  c7.9-7.6,15.9-15.1,23.8-22.7c34.5-33,69-66,103.5-98.9c21.8-20.9,43.7-41.8,65.5-62.6c12.1-11.6,30.2-11.2,42.4,0  c11.8,10.8,11.4,31.6,0,42.4c-7.9,7.6-15.8,15.2-23.8,22.7c-34.5,33-69,66-103.5,98.9c-4,3.8-8,7.6-11.9,11.4h341.6  c16.8,0,29.3,13.7,30,30C750.9,531.2,735.9,545,720.2,545z"/><text x="0" y="1039" fill="#000000" font-size="5px" font-weight="bold" font-family="'Helvetica Neue', Helvetica, Arial-Unicode, Arial, Sans-serif">Created by shashank singh</text><text x="0" y="1044" fill="#000000" font-size="5px" font-weight="bold" font-family="'Helvetica Neue', Helvetica, Arial-Unicode, Arial, Sans-serif">from the Noun Project</text></svg>