<svg xmlns="http://www.w3.org/2000/svg" xmlns:xlink="http://www.w3.org/1999/xlink" xml:space="preserve" version="1.1" style="shape-rendering:geometricPrecision;text-rendering:geometricPrecision;image-rendering:optimizeQuality;" viewBox="0 0 0.661 0.82625" x="0px" y="0px" fill-rule="evenodd" clip-rule="evenodd"><defs><style type="text/css">
   
    .fil0 {fill:black}
   
  </style></defs><g><path class="fil0" d="M0.331 0.661c-0.092,0 -0.174,-0.037 -0.234,-0.097 -0.06,-0.06 -0.097,-0.142 -0.097,-0.233 0,-0.092 0.037,-0.174 0.097,-0.234 0.06,-0.06 0.142,-0.097 0.234,-0.097 0.091,0 0.173,0.037 0.233,0.097 0.06,0.06 0.097,0.142 0.097,0.234 0,0.091 -0.037,0.173 -0.097,0.233 -0.06,0.06 -0.142,0.097 -0.233,0.097zm-0.133 -0.33l0.163 0.162 0.043 -0.042 -0.121 -0.12 0.121 -0.121 -0.043 -0.042 -0.163 0.163z"/></g><text x="0" y="15.661" fill="#000000" font-size="5px" font-weight="bold" font-family="'Helvetica Neue', Helvetica, Arial-Unicode, Arial, Sans-serif">Created by Deemak Daksina</text><text x="0" y="20.661" fill="#000000" font-size="5px" font-weight="bold" font-family="'Helvetica Neue', Helvetica, Arial-Unicode, Arial, Sans-serif">from the Noun Project</text></svg>