<svg xmlns="http://www.w3.org/2000/svg" data-name="Layer 1" viewBox="0 0 100 125" x="0px" y="0px"><title>Untitled-1</title><path d="M79.89,31.65c4.33,0,8.67,0,13,0,4.08,0,6.59,2.55,6.59,6.64q0,27.54,0,55.08c0,4-2.58,6.62-6.63,6.62H6.62C2.55,100,0,97.41,0,93.22Q0,75.3,0,57.38,0,43.66,0,29.94c0-4.08,1.53-6.06,5.49-7.14L87.69,0.29c3.78-1,7,.72,8.05,4.47q2,7.3,4,14.63a6.2,6.2,0,0,1-4.67,7.86l-14.53,4c-0.23.06-.46,0.16-0.69,0.24ZM93.25,56.53h-87V93.72h87V56.53ZM68.78,11.85a4,4,0,0,0,.25.48c3.11,4.13,6.21,8.26,9.36,12.36a1.4,1.4,0,0,0,1.17.36c1.45-.32,2.88-0.77,4.31-1.16L90.66,22a1.13,1.13,0,0,0-.07-0.32c-3.17-4.22-6.33-8.44-9.54-12.63a1.17,1.17,0,0,0-1-.29C76.33,9.78,72.62,10.8,68.78,11.85Zm1,15.86c-3.35-4.45-6.56-8.72-9.82-13a1.33,1.33,0,0,0-1.12-.18C55.93,15.34,53,16.16,50,17l-2.36.64,8.65,11.48c1.43,1.9,1.43,1.91,3.75,1.28ZM46.67,37.8c-4,0-7.71,0-11.45,0a1.28,1.28,0,0,0-1.43,1c-1.46,3.76-3,7.5-4.47,11.25L28,53.23a1.87,1.87,0,0,0,.41.13c3.79,0,7.57,0,11.36,0a1.39,1.39,0,0,0,.94-0.78c0.94-2.21,1.8-4.45,2.69-6.67Zm21.77,0c-4.12,0-8.05,0-12,0a1.35,1.35,0,0,0-.8.81c-1.88,4.62-3.72,9.25-5.57,13.88a7.73,7.73,0,0,0-.23.85c4,0,7.91,0,11.8,0a1.21,1.21,0,0,0,.8-0.67c0.51-1.12,1-2.28,1.41-3.43Zm3.07,15.57c4.11,0,8,0,11.9,0a1.43,1.43,0,0,0,.89-0.84c1.84-4.51,3.65-9,5.45-13.56,0.13-.33.22-0.67,0.35-1.08-0.38,0-.66-0.05-0.95-0.05-3.5,0-7,0-10.49,0a1.21,1.21,0,0,0-1.33.95c-1.18,3.05-2.41,6.08-3.62,9.12ZM48.94,33.59C45.47,29,42.26,24.71,39,20.47a1.18,1.18,0,0,0-1-.2c-3.48.91-6.95,1.87-10.41,2.81-0.26.07-.51,0.18-0.86,0.31,2.82,3.73,5.55,7.36,8.32,11a1.47,1.47,0,0,0,1,.38,65,65,0,0,0,6.55,0C44.65,34.53,46.66,34,48.94,33.59ZM21.78,39.43a4.69,4.69,0,0,0-9.38-.12A4.69,4.69,0,1,0,21.78,39.43Z"/><path d="M57,73.47L45.52,66.32c-2.33-1.46-4.24-.4-4.24,2.35V83.58c0,2.75,1.91,3.81,4.24,2.35L57,78.77C59.3,77.31,59.3,74.93,57,73.47Z"/></svg>