<?xml version="1.0" encoding="iso-8859-1"?>
<!-- Generator: Adobe Illustrator 18.0.0, SVG Export Plug-In . SVG Version: 6.00 Build 0)  -->
<!DOCTYPE svg PUBLIC "-//W3C//DTD SVG 1.1//EN" "http://www.w3.org/Graphics/SVG/1.1/DTD/svg11.dtd">
<svg version="1.1" id="Capa_1" xmlns="http://www.w3.org/2000/svg" xmlns:xlink="http://www.w3.org/1999/xlink" x="0px" y="0px"
viewBox="0 0 292.798 292.798" style="enable-background:new 0 0 292.798 292.798;" xml:space="preserve">
<path d="M292.746,178.604c-0.39-3.72-2.889-6.754-6.209-7.525c-57.365-13.329-52.003-52.801-91.145-73.469
	c-15.156-8.002-32.622-4.378-44.144,7.639c-2.726,2.843-6.976,2.838-9.702-0.004c-11.522-12.014-28.986-15.636-44.14-7.635
	c-39.142,20.667-33.781,60.139-91.145,73.469c-3.319,0.771-5.818,3.805-6.209,7.525c-0.39,3.72,1.415,7.299,4.486,8.89
	c61.116,31.674,120.824-7.911,137.467-22.487c2.57-2.251,6.211-2.257,8.782-0.005c16.635,14.572,76.349,54.17,137.473,22.492
	C291.331,185.903,293.136,182.324,292.746,178.604z M70.973,155.12c-4.142,0-7.5-3.358-7.5-7.5c0-4.142,3.358-7.5,7.5-7.5
	c4.142,0,7.5,3.358,7.5,7.5C78.473,151.762,75.115,155.12,70.973,155.12z M115.922,120.22c-4.932,0.074-17.204,4.849-24.583,16.018
	c-1.442,2.183-3.831,3.366-6.265,3.366c-1.42,0-2.854-0.402-4.128-1.243c-3.456-2.284-4.406-6.937-2.123-10.393
	c9.619-14.559,26.177-22.585,36.872-22.746c0.039-0.001,0.077-0.001,0.115-0.001c4.09,0,7.435,3.284,7.497,7.387
	C123.37,116.75,120.063,120.158,115.922,120.22z"/>
</svg>
