<svg width="83" height="87" viewBox="0 0 83 87" fill="none" xmlns="http://www.w3.org/2000/svg">
<path d="M39.9108 26.2279C39.9082 23.9118 39.2437 21.6447 37.9955 19.6937C36.7473 17.7427 34.9674 16.1891 32.8657 15.216C30.7639 14.2429 28.4278 13.8908 26.1325 14.2012C23.8373 14.5116 21.6786 15.4715 19.9108 16.9679C17.7317 15.1141 14.9619 14.0998 12.1008 14.1079C9.15603 14.115 6.31438 15.1931 4.10595 17.1411C1.89753 19.0892 0.473167 21.774 0.0985699 24.6949C-0.276027 27.6158 0.424726 30.5732 2.07011 33.0154C3.71549 35.4577 6.19312 37.218 9.04083 37.9679C8.66199 39.1711 8.47635 40.4267 8.49083 41.6879C8.46971 43.4685 8.84089 45.2319 9.57801 46.8529C10.3151 48.4739 11.4001 49.9127 12.7559 51.0672C14.1116 52.2216 15.705 53.0634 17.4227 53.5328C19.1404 54.0022 20.9404 54.0876 22.6949 53.783C24.4494 53.4784 26.1153 52.7912 27.5743 51.7703C29.0333 50.7494 30.2496 49.4198 31.1369 47.8759C32.0242 46.332 32.5607 44.6117 32.7082 42.8371C32.8558 41.0625 32.6109 39.2772 31.9908 37.6079C34.3124 36.7427 36.3146 35.1896 37.7298 33.1561C39.1451 31.1225 39.906 28.7055 39.9108 26.2279V26.2279ZM30.4908 34.7079C29.9621 33.9441 29.3444 33.2459 28.6508 32.6279C28.4926 32.4861 28.308 32.3769 28.1075 32.3064C27.907 32.2359 27.6946 32.2056 27.4824 32.2172C27.2703 32.2288 27.0624 32.2821 26.8709 32.374C26.6793 32.4659 26.5077 32.5947 26.3658 32.7529C26.224 32.9112 26.1147 33.0958 26.0443 33.2963C25.9738 33.4968 25.9435 33.7092 25.9551 33.9213C25.9667 34.1335 26.02 34.3413 26.1119 34.5329C26.2038 34.7245 26.3326 34.8961 26.4908 35.0379C27.7465 36.1659 28.655 37.6279 29.1104 39.2532C29.5657 40.8784 29.549 42.5997 29.0621 44.2158C28.5753 45.8319 27.6384 47.276 26.3611 48.3793C25.0838 49.4826 23.5188 50.1994 21.8491 50.446C20.1793 50.6927 18.4739 50.4589 16.9322 49.772C15.3904 49.0852 14.0761 47.9736 13.1428 46.5673C12.2095 45.1609 11.6958 43.518 11.6618 41.8305C11.6278 40.143 12.0749 38.4807 12.9508 37.0379C13.1431 36.7129 13.215 36.3306 13.1539 35.9579C13.0928 35.5852 12.9026 35.2458 12.6166 34.9991C12.3306 34.7525 11.967 34.6142 11.5894 34.6085C11.2118 34.6028 10.8441 34.73 10.5508 34.9679C8.35071 34.5879 6.3738 33.3948 5.01223 31.6253C3.65067 29.8558 3.00392 27.6392 3.20027 25.4151C3.39662 23.1911 4.42173 21.1221 6.07226 19.6185C7.72278 18.1149 9.87815 17.2866 12.1108 17.2979C14.1695 17.2872 16.1674 17.9944 17.7608 19.2979C16.8955 20.5649 16.2748 21.9827 15.9308 23.4779C15.8692 23.8823 15.9629 24.295 16.193 24.6332C16.4231 24.9714 16.7726 25.21 17.1714 25.3012C17.5701 25.3923 17.9886 25.3292 18.3428 25.1246C18.697 24.92 18.9606 24.5889 19.0808 24.1979C19.4356 22.6817 20.1815 21.285 21.2443 20.1468C22.3071 19.0087 23.6495 18.169 25.1379 17.7113C26.6264 17.2537 28.2087 17.1941 29.7273 17.5386C31.2459 17.883 32.6477 18.6194 33.7931 19.6744C34.9384 20.7294 35.7872 22.0661 36.255 23.5514C36.7228 25.0366 36.7931 26.6185 36.459 28.1395C36.125 29.6604 35.3981 31.0672 34.3509 32.2197C33.3038 33.3721 31.9729 34.2301 30.4908 34.7079V34.7079Z" fill="white" fill-opacity="0.9"/>
<path d="M82.6809 9.40799C82.1591 7.15559 81.0055 5.09883 79.3555 3.47922C77.7055 1.85962 75.6277 0.744411 73.366 0.26456C71.1043 -0.21529 68.7526 -0.0398619 66.5871 0.770245C64.4217 1.58035 62.5323 2.9915 61.1409 4.83799C59.5235 4.00518 57.7394 3.54713 55.9209 3.49784C54.1023 3.44854 52.296 3.80925 50.6359 4.55321C48.9758 5.29718 47.5044 6.40531 46.331 7.79544C45.1575 9.18557 44.312 10.822 43.8573 12.5835C43.4025 14.3449 43.35 16.1861 43.7038 17.9706C44.0577 19.755 44.8086 21.437 45.9011 22.8916C46.9935 24.3463 48.3994 25.5363 50.0145 26.3736C51.6296 27.2108 53.4125 27.6737 55.2309 27.728C55.1221 28.9872 55.2098 30.2557 55.4909 31.488C56.1048 34.1609 57.605 36.5474 59.7474 38.2595C61.8898 39.9716 64.5484 40.9086 67.2909 40.918C69.114 40.9171 70.9136 40.5056 72.556 39.714C74.1983 38.9224 75.6413 37.771 76.7778 36.3454C77.9142 34.9198 78.715 33.2565 79.1206 31.479C79.5263 29.7015 79.5263 27.8555 79.1209 26.078C78.8026 24.7231 78.251 23.4339 77.4909 22.268C79.5635 20.9088 81.1712 18.9488 82.0988 16.6504C83.0264 14.352 83.2295 11.825 82.6809 9.40799ZM69.2809 37.488C67.7396 37.8404 66.1323 37.7764 64.6239 37.3024C63.1156 36.8285 61.7605 35.9617 60.6977 34.7911C59.635 33.6205 58.9029 32.1882 58.5766 30.6411C58.2503 29.0941 58.3415 27.4881 58.8409 25.988C58.9631 25.59 58.9275 25.1602 58.7413 24.7878C58.5551 24.4154 58.2326 24.129 57.8409 23.988C57.5239 23.8823 57.1818 23.8786 56.8626 23.9772C56.5433 24.0758 56.263 24.2719 56.0609 24.538C53.842 24.6426 51.6642 23.9137 49.9553 22.4945C48.2465 21.0752 47.1301 19.0682 46.8256 16.8679C46.5211 14.6675 47.0505 12.4327 48.3097 10.6028C49.5689 8.7728 51.4669 7.47986 53.6309 6.97799C55.6521 6.5009 57.7768 6.75232 59.6309 7.68799C59.0714 9.11862 58.7864 10.6419 58.7909 12.178C58.7909 12.605 58.9605 13.0145 59.2624 13.3164C59.5644 13.6184 59.9739 13.788 60.4009 13.788V13.788C60.6135 13.7893 60.8243 13.7483 61.0209 13.6672C61.2175 13.5862 61.396 13.4667 61.5459 13.3159C61.6958 13.1651 61.8141 12.9859 61.8939 12.7888C61.9738 12.5917 62.0135 12.3806 62.0109 12.168C62.0062 10.607 62.4117 9.07221 63.1868 7.71726C63.9619 6.3623 65.0794 5.23476 66.4273 4.44752C67.7752 3.66027 69.3063 3.24097 70.8673 3.23159C72.4282 3.22221 73.9643 3.62308 75.3216 4.39407C76.6789 5.16505 77.8098 6.27909 78.6011 7.62463C79.3924 8.97017 79.8164 10.5 79.8305 12.0609C79.8446 13.6218 79.4483 15.1591 78.6815 16.5187C77.9146 17.8783 76.804 19.0126 75.4609 19.808C74.7696 19.1892 74.0116 18.6492 73.2009 18.198C73.0157 18.0956 72.8122 18.0306 72.6019 18.0068C72.3916 17.9831 72.1787 18.0009 71.9754 18.0594C71.772 18.1179 71.5822 18.2159 71.4167 18.3478C71.2512 18.4797 71.1133 18.6428 71.0109 18.828C70.9084 19.0132 70.8435 19.2167 70.8197 19.4269C70.7959 19.6372 70.8138 19.8501 70.8723 20.0535C70.9308 20.2568 71.0288 20.4467 71.1607 20.6122C71.2925 20.7777 71.4557 20.9156 71.6409 21.018C73.2199 21.8922 74.4958 23.2258 75.2994 24.8419C76.103 26.458 76.3962 28.2802 76.1402 30.0668C75.8842 31.8534 75.091 33.5199 73.866 34.8454C72.6409 36.1708 71.0418 37.0924 69.2809 37.488V37.488Z" fill="white" fill-opacity="0.9"/>
<path d="M68.4908 54.018C65.9637 52.6501 63.0339 52.2215 60.2208 52.808C59.3702 50.6651 57.9264 48.8091 56.0588 47.4573C54.1911 46.1055 51.9769 45.314 49.6755 45.1755C47.3742 45.037 45.081 45.5572 43.0647 46.6752C41.0483 47.7931 39.3924 49.4626 38.2908 51.488C37.0304 53.8521 36.5825 56.5651 37.0162 59.2089C37.4499 61.8527 38.7411 64.2805 40.6908 66.118C39.7697 66.9919 38.9903 68.004 38.3808 69.118C37.3927 70.9637 36.8986 73.0336 36.9466 75.1266C36.9947 77.2196 37.5832 79.2647 38.655 81.0631C39.7268 82.8616 41.2455 84.3522 43.0635 85.3904C44.8816 86.4286 46.9373 86.9789 49.0308 86.988C50.2021 86.9873 51.3673 86.8189 52.4908 86.488C54.0193 86.0371 55.4434 85.288 56.6808 84.284C57.9183 83.2799 58.9447 82.0407 59.7008 80.638C60.3594 79.4091 60.8025 78.0765 61.0108 76.698C61.5704 76.7811 62.1351 76.8245 62.7008 76.828C65.4052 76.8367 68.0349 75.9414 70.1722 74.2844C72.3094 72.6274 73.8317 70.3036 74.4971 67.6824C75.1624 65.0612 74.9327 62.2927 73.8445 59.817C72.7563 57.3412 70.8719 55.3001 68.4908 54.018V54.018ZM70.4908 68.928C69.5902 70.5847 68.1871 71.913 66.4836 72.7216C64.78 73.5303 62.8639 73.7776 61.0108 73.428C60.9092 72.5061 60.6977 71.5996 60.3808 70.728C60.2004 70.382 59.9004 70.1133 59.5367 69.9719C59.173 69.8305 58.7703 69.826 58.4035 69.9593C58.0368 70.0925 57.7309 70.3545 57.5428 70.6964C57.3547 71.0382 57.2971 71.4368 57.3808 71.818C57.8029 73.0004 57.9729 74.258 57.8799 75.5101C57.7869 76.7621 57.4329 77.9809 56.8408 79.088C56.1902 80.3011 55.2671 81.3468 54.144 82.1428C53.0209 82.9389 51.7284 83.4635 50.3682 83.6755C49.0081 83.8875 47.6172 83.7811 46.3051 83.3647C44.993 82.9483 43.7954 82.2331 42.8065 81.2755C41.8175 80.3179 41.0642 79.144 40.6057 77.846C40.1472 76.5479 39.996 75.1613 40.1641 73.795C40.3322 72.4287 40.815 71.12 41.5744 69.9718C42.3338 68.8236 43.3493 67.8673 44.5408 67.178C44.9099 66.961 45.1781 66.6067 45.2868 66.1926C45.3955 65.7785 45.3358 65.3382 45.1208 64.968C44.9522 64.6797 44.6977 64.4515 44.3928 64.3152C44.0879 64.1789 43.7481 64.1414 43.4208 64.208C41.8009 62.8953 40.6869 61.061 40.2693 59.0182C39.8516 56.9755 40.1561 54.8511 41.1308 53.008C41.9309 51.5213 43.1377 50.2932 44.6101 49.4673C46.0825 48.6414 47.7596 48.2518 49.4453 48.3441C51.131 48.4364 52.7556 49.0068 54.129 49.9886C55.5024 50.9703 56.5679 52.3229 57.2008 53.888C55.8356 54.5866 54.6169 55.5405 53.6108 56.698C53.3297 57.0202 53.1881 57.4409 53.2172 57.8676C53.2462 58.2942 53.4436 58.6918 53.7658 58.973C54.0881 59.2541 54.5088 59.3957 54.9354 59.3666C55.3621 59.3376 55.7597 59.1402 56.0408 58.818C57.376 57.3094 59.1787 56.2924 61.1603 55.9298C63.142 55.5672 65.188 55.88 66.9708 56.818C68.0005 57.3734 68.9103 58.1265 69.6483 59.0342C70.3863 59.942 70.9378 60.9864 71.2713 62.1078C71.6048 63.2291 71.7137 64.4052 71.5918 65.5687C71.4699 66.7321 71.1196 67.8601 70.5608 68.888L70.4908 68.928Z" fill="white" fill-opacity="0.9"/>
</svg>
